STARTFONT 2.1
COMMENT This font was taken from the dosemu project, resized by 
COMMENT bdfresize and finally corrected and sharpened by hand.
COMMENT 
COMMENT If you choose any 800x600 pix display you'll have a 
COMMENT fullscreen mode when using xdosemu and leaving away the 
COMMENT X Windows' title bar and border lines.
COMMENT 
COMMENT Have a look to the other fonts of this series as well.
COMMENT Written in December 2002 by Martin Reuber, OFD Kiel,
COMMENT German Fiscal Administration.
COMMENT 
COMMENT Update 001 in April 2003:
COMMENT The style of the numeral 2 was changed.
COMMENT 
COMMENT Update 003 in January 2004:
COMMENT Small corrections in font name, properties and comments.
FONT -dosemu-vga-Medium-R-Normal--24-240-75-75-c-100-IBM-CP437
SIZE 24 75 75
FONTBOUNDINGBOX 10 24 0 -6
STARTPROPERTIES 22
POINT_SIZE 240
WEIGHT 10
RESOLUTION 100
RESOLUTION_X 75
RESOLUTION_Y 75
QUAD_WIDTH 8
DEFAULT_CHAR 0
FONT_ASCENT 18
FONT_DESCENT 6
_ORIGINAL_FONT_NAME "vga"
_XMBDFED_INFO "Edited with xmbdfed 4.5."
FOUNDRY "dosemu"
FAMILY_NAME "vga"
WEIGHT_NAME "Medium"
SLANT "R"
SETWIDTH_NAME "Normal"
ADD_STYLE_NAME "800x600pix_screen_max_size"
PIXEL_SIZE 24
SPACING "c"
AVERAGE_WIDTH 100
CHARSET_REGISTRY "IBM"
CHARSET_ENCODING "CP437"
ENDPROPERTIES
CHARS 256
STARTCHAR 000
ENCODING 0
SWIDTH 400 0
DWIDTH 10 0
BBX 0 0 0 0
BITMAP
ENDCHAR
STARTCHAR 001
ENCODING 1
SWIDTH 400 0
DWIDTH 10 0
BBX 10 16 0 0
BITMAP
7F80
8040
8040
B340
B340
8040
8040
8040
8040
A140
A140
9240
8C40
8040
8040
7F80
ENDCHAR
STARTCHAR 002
ENCODING 2
SWIDTH 400 0
DWIDTH 10 0
BBX 10 16 0 0
BITMAP
7F80
FFC0
FFC0
CCC0
CCC0
FFC0
FFC0
FFC0
FFC0
DEC0
DEC0
EDC0
F3C0
FFC0
FFC0
7F80
ENDCHAR
STARTCHAR 003
ENCODING 3
SWIDTH 400 0
DWIDTH 10 0
BBX 9 10 0 2
BITMAP
2200
7700
FF80
FF80
FF80
FF80
7F00
3E00
1C00
0800
ENDCHAR
STARTCHAR 004
ENCODING 4
SWIDTH 400 0
DWIDTH 10 0
BBX 9 11 0 1
BITMAP
0800
1C00
3E00
7F00
FF80
FF80
FF80
7F00
3E00
1C00
0800
ENDCHAR
STARTCHAR 005
ENCODING 5
SWIDTH 400 0
DWIDTH 10 0
BBX 10 14 0 0
BITMAP
0C00
1E00
3F00
3F00
6180
E1C0
E1C0
E1C0
E1C0
7F80
1E00
1E00
3F00
3F00
ENDCHAR
STARTCHAR 006
ENCODING 6
SWIDTH 400 0
DWIDTH 10 0
BBX 10 14 0 0
BITMAP
0C00
1E00
3F00
7F80
FFC0
FFC0
FFC0
7F80
3F00
1E00
1E00
1E00
3F00
3F00
ENDCHAR
STARTCHAR 007
ENCODING 7
SWIDTH 400 0
DWIDTH 10 0
BBX 7 7 1 3
BITMAP
38
38
FE
FE
FE
38
38
ENDCHAR
STARTCHAR 008
ENCODING 8
SWIDTH 400 0
DWIDTH 10 0
BBX 10 24 0 -6
BITMAP
FFC0
FFC0
FFC0
FFC0
FFC0
FFC0
FFC0
FFC0
FFC0
FFC0
FFC0
F3C0
E1C0
E1C0
F3C0
FFC0
FFC0
FFC0
FFC0
FFC0
FFC0
FFC0
FFC0
FFC0
ENDCHAR
STARTCHAR 009
ENCODING 9
SWIDTH 400 0
DWIDTH 10 0
BBX 8 9 1 1
BITMAP
7E
FF
E7
E7
C3
E7
E7
FF
7E
ENDCHAR
STARTCHAR 010
ENCODING 10
SWIDTH 400 0
DWIDTH 10 0
BBX 10 24 0 -6
BITMAP
FFC0
FFC0
FFC0
FFC0
FFC0
FFC0
FFC0
FFC0
FFC0
EDC0
DEC0
DEC0
DEC0
DEC0
DEC0
EDC0
FFC0
FFC0
FFC0
FFC0
FFC0
FFC0
FFC0
FFC0
ENDCHAR
STARTCHAR 011
ENCODING 11
SWIDTH 400 0
DWIDTH 10 0
BBX 8 16 0 0
BITMAP
1F
03
07
0D
19
30
7C
FE
C6
C6
C6
C6
C6
C6
FE
7C
ENDCHAR
STARTCHAR 012
ENCODING 12
SWIDTH 400 0
DWIDTH 10 0
BBX 6 16 2 0
BITMAP
78
FC
CC
CC
CC
CC
CC
FC
78
30
30
30
FC
FC
30
30
ENDCHAR
STARTCHAR 013
ENCODING 13
SWIDTH 400 0
DWIDTH 10 0
BBX 8 16 0 0
BITMAP
1E
3F
33
33
3F
3E
30
30
30
30
30
30
70
F0
F0
60
ENDCHAR
STARTCHAR 014
ENCODING 14
SWIDTH 400 0
DWIDTH 10 0
BBX 8 17 0 -1
BITMAP
3E
7F
63
63
7F
63
63
63
63
63
63
63
67
6F
EF
E6
C0
ENDCHAR
STARTCHAR 015
ENCODING 15
SWIDTH 400 0
DWIDTH 10 0
BBX 8 14 1 1
BITMAP
18
18
DB
DB
E7
3C
E7
E7
3C
E7
DB
DB
18
18
ENDCHAR
STARTCHAR 016
ENCODING 16
SWIDTH 400 0
DWIDTH 10 0
BBX 9 16 0 0
BITMAP
C000
E000
F000
F800
FC00
FE00
FF00
FF80
FF80
FF00
FE00
FC00
F800
F000
E000
C000
ENDCHAR
STARTCHAR 017
ENCODING 17
SWIDTH 400 0
DWIDTH 10 0
BBX 9 16 0 0
BITMAP
0180
0380
0780
0F80
1F80
3F80
7F80
FF80
FF80
7F80
3F80
1F80
0F80
0780
0380
0180
ENDCHAR
STARTCHAR 018
ENCODING 18
SWIDTH 400 0
DWIDTH 10 0
BBX 8 15 1 1
BITMAP
18
3C
7E
FF
18
18
18
18
18
18
18
FF
7E
3C
18
ENDCHAR
STARTCHAR 019
ENCODING 19
SWIDTH 400 0
DWIDTH 10 0
BBX 7 16 1 0
BITMAP
C6
C6
C6
C6
C6
C6
C6
C6
C6
C6
C6
C6
00
00
C6
C6
ENDCHAR
STARTCHAR 020
ENCODING 20
SWIDTH 400 0
DWIDTH 10 0
BBX 8 16 0 0
BITMAP
7F
FF
DB
DB
DB
DB
FB
7B
1B
1B
1B
1B
1B
1B
1B
1B
ENDCHAR
STARTCHAR 021
ENCODING 21
SWIDTH 400 0
DWIDTH 10 0
BBX 8 16 0 0
BITMAP
7E
FF
C3
63
30
38
6C
46
62
36
1C
0C
C6
C3
FF
7E
ENDCHAR
STARTCHAR 022
ENCODING 22
SWIDTH 400 0
DWIDTH 10 0
BBX 8 7 0 0
BITMAP
FF
FF
FF
FF
FF
FF
FF
ENDCHAR
STARTCHAR 023
ENCODING 23
SWIDTH 400 0
DWIDTH 10 0
BBX 6 16 2 0
BITMAP
30
78
FC
30
30
30
30
30
30
30
30
FC
78
30
FC
FC
ENDCHAR
STARTCHAR 024
ENCODING 24
SWIDTH 400 0
DWIDTH 10 0
BBX 6 16 2 0
BITMAP
30
78
FC
30
30
30
30
30
30
30
30
30
30
30
30
30
ENDCHAR
STARTCHAR 025
ENCODING 25
SWIDTH 400 0
DWIDTH 10 0
BBX 6 16 2 0
BITMAP
30
30
30
30
30
30
30
30
30
30
30
30
30
FC
78
30
ENDCHAR
STARTCHAR 026
ENCODING 26
SWIDTH 400 0
DWIDTH 10 0
BBX 8 6 0 3
BITMAP
04
06
FF
FF
06
04
ENDCHAR
STARTCHAR 027
ENCODING 27
SWIDTH 400 0
DWIDTH 10 0
BBX 8 6 0 3
BITMAP
20
60
FF
FF
60
20
ENDCHAR
STARTCHAR 028
ENCODING 28
SWIDTH 400 0
DWIDTH 10 0
BBX 8 7 0 5
BITMAP
C0
C0
C0
C0
C0
FF
FF
ENDCHAR
STARTCHAR 029
ENCODING 29
SWIDTH 400 0
DWIDTH 10 0
BBX 9 6 0 3
BITMAP
2200
6300
FF80
FF80
6300
2200
ENDCHAR
STARTCHAR 030
ENCODING 30
SWIDTH 400 0
DWIDTH 10 0
BBX 7 11 1 1
BITMAP
10
10
38
38
7C
7C
7C
FE
FE
FE
FE
ENDCHAR
STARTCHAR 031
ENCODING 31
SWIDTH 400 0
DWIDTH 10 0
BBX 7 11 1 1
BITMAP
FE
FE
FE
FE
7C
7C
7C
38
38
10
10
ENDCHAR
STARTCHAR 032
ENCODING 32
SWIDTH 400 0
DWIDTH 10 0
BBX 0 0 0 0
BITMAP
ENDCHAR
STARTCHAR 033
ENCODING 33
SWIDTH 400 0
DWIDTH 10 0
BBX 4 16 3 0
BITMAP
60
F0
F0
F0
F0
F0
F0
60
60
60
60
60
00
00
60
60
ENDCHAR
STARTCHAR 034
ENCODING 34
SWIDTH 400 0
DWIDTH 10 0
BBX 6 6 2 12
BITMAP
CC
CC
CC
CC
CC
48
ENDCHAR
STARTCHAR 035
ENCODING 35
SWIDTH 400 0
DWIDTH 10 0
BBX 9 10 0 3
BITMAP
3600
3600
FF80
FF80
3600
3600
FF80
FF80
3600
3600
ENDCHAR
STARTCHAR 036
ENCODING 36
SWIDTH 400 0
DWIDTH 10 0
BBX 8 20 0 -2
BITMAP
08
08
7E
FF
CB
CB
C8
C8
C8
FE
7F
0B
0B
0B
CB
CB
FF
7E
08
08
ENDCHAR
STARTCHAR 037
ENCODING 37
SWIDTH 400 0
DWIDTH 10 0
BBX 8 9 0 3
BITMAP
C1
C3
06
0C
18
30
60
C3
83
ENDCHAR
STARTCHAR 038
ENCODING 38
SWIDTH 400 0
DWIDTH 10 0
BBX 8 16 0 0
BITMAP
3C
7E
66
66
66
6C
38
73
F7
DE
CC
C6
C6
C6
FF
77
ENDCHAR
STARTCHAR 039
ENCODING 39
SWIDTH 400 0
DWIDTH 10 0
BBX 3 6 3 12
BITMAP
60
60
60
60
60
C0
ENDCHAR
STARTCHAR 040
ENCODING 40
SWIDTH 400 0
DWIDTH 10 0
BBX 5 16 2 0
BITMAP
38
60
C0
C0
C0
C0
C0
C0
C0
C0
C0
C0
C0
C0
60
38
ENDCHAR
STARTCHAR 041
ENCODING 41
SWIDTH 400 0
DWIDTH 10 0
BBX 5 16 2 0
BITMAP
E0
30
18
18
18
18
18
18
18
18
18
18
18
18
30
E0
ENDCHAR
STARTCHAR 042
ENCODING 42
SWIDTH 400 0
DWIDTH 10 0
BBX 9 10 0 3
BITMAP
7700
7700
1C00
8880
FF80
FF80
8880
1C00
7700
7700
ENDCHAR
STARTCHAR 043
ENCODING 43
SWIDTH 400 0
DWIDTH 10 0
BBX 8 8 0 4
BITMAP
18
18
18
FF
FF
18
18
18
ENDCHAR
STARTCHAR 044
ENCODING 44
SWIDTH 400 0
DWIDTH 10 0
BBX 3 5 3 -1
BITMAP
60
60
60
60
C0
ENDCHAR
STARTCHAR 045
ENCODING 45
SWIDTH 400 0
DWIDTH 10 0
BBX 8 2 0 7
BITMAP
FF
FF
ENDCHAR
STARTCHAR 046
ENCODING 46
SWIDTH 400 0
DWIDTH 10 0
BBX 2 2 3 0
BITMAP
C0
C0
ENDCHAR
STARTCHAR 047
ENCODING 47
SWIDTH 400 0
DWIDTH 10 0
BBX 8 9 0 2
BITMAP
01
03
06
0C
18
30
60
C0
80
ENDCHAR
STARTCHAR 048
ENCODING 48
SWIDTH 400 0
DWIDTH 10 0
BBX 8 16 0 0
BITMAP
3C
7E
C3
C3
C3
C3
DB
DB
DB
DB
C3
C3
C3
C3
7E
3C
ENDCHAR
STARTCHAR 049
ENCODING 49
SWIDTH 400 0
DWIDTH 10 0
BBX 7 16 1 0
BITMAP
08
18
38
78
D8
18
18
18
18
18
18
18
18
18
7E
7E
ENDCHAR
STARTCHAR 050
ENCODING 50
SWIDTH 400 0
DWIDTH 10 0
BBX 8 16 0 0
BITMAP
7E
FF
C3
03
03
07
0E
1C
38
70
E0
C0
C0
C3
FF
FE
ENDCHAR
STARTCHAR 051
ENCODING 51
SWIDTH 400 0
DWIDTH 10 0
BBX 8 16 0 0
BITMAP
7E
FF
C3
03
03
03
1E
1E
03
03
03
03
03
C3
FF
7E
ENDCHAR
STARTCHAR 052
ENCODING 52
SWIDTH 400 0
DWIDTH 10 0
BBX 8 16 0 0
BITMAP
06
0E
1E
3E
76
E6
C6
FF
FF
06
06
06
06
06
0F
0F
ENDCHAR
STARTCHAR 053
ENCODING 53
SWIDTH 400 0
DWIDTH 10 0
BBX 8 16 0 0
BITMAP
FF
FF
C0
C0
C0
C0
FE
7F
03
03
03
03
03
C3
FF
7E
ENDCHAR
STARTCHAR 054
ENCODING 54
SWIDTH 400 0
DWIDTH 10 0
BBX 8 16 0 0
BITMAP
3E
7E
E0
C0
C0
C0
FC
FE
C3
C3
C3
C3
C3
C3
FF
7E
ENDCHAR
STARTCHAR 055
ENCODING 55
SWIDTH 400 0
DWIDTH 10 0
BBX 8 16 0 0
BITMAP
FF
FF
C3
03
03
07
0E
1C
38
70
60
60
60
60
60
60
ENDCHAR
STARTCHAR 056
ENCODING 56
SWIDTH 400 0
DWIDTH 10 0
BBX 8 16 0 0
BITMAP
7E
FF
C3
C3
C3
C3
FF
7E
C3
C3
C3
C3
C3
C3
FF
7E
ENDCHAR
STARTCHAR 057
ENCODING 57
SWIDTH 400 0
DWIDTH 10 0
BBX 8 16 0 0
BITMAP
7E
FF
C3
C3
C3
C3
FF
7F
03
03
03
03
03
C3
FE
7C
ENDCHAR
STARTCHAR 058
ENCODING 58
SWIDTH 400 0
DWIDTH 10 0
BBX 2 8 4 2
BITMAP
C0
C0
00
00
00
00
C0
C0
ENDCHAR
STARTCHAR 059
ENCODING 59
SWIDTH 400 0
DWIDTH 10 0
BBX 3 11 3 -1
BITMAP
60
60
00
00
00
00
60
60
60
60
C0
ENDCHAR
STARTCHAR 060
ENCODING 60
SWIDTH 400 0
DWIDTH 10 0
BBX 8 15 0 0
BITMAP
01
03
06
0C
18
30
60
C0
60
30
18
0C
06
03
01
ENDCHAR
STARTCHAR 061
ENCODING 61
SWIDTH 400 0
DWIDTH 10 0
BBX 8 6 0 5
BITMAP
FF
FF
00
00
FF
FF
ENDCHAR
STARTCHAR 062
ENCODING 62
SWIDTH 400 0
DWIDTH 10 0
BBX 8 15 1 0
BITMAP
80
C0
60
30
18
0C
06
03
06
0C
18
30
60
C0
80
ENDCHAR
STARTCHAR 063
ENCODING 63
SWIDTH 400 0
DWIDTH 10 0
BBX 8 16 1 0
BITMAP
7E
FF
C3
C3
03
06
0C
18
18
18
18
18
00
00
18
18
ENDCHAR
STARTCHAR 064
ENCODING 64
SWIDTH 400 0
DWIDTH 10 0
BBX 8 14 1 0
BITMAP
7E
FF
C3
C3
C3
C3
CF
DF
DF
DF
CE
C0
FE
7E
ENDCHAR
STARTCHAR 065
ENCODING 65
SWIDTH 400 0
DWIDTH 10 0
BBX 8 16 0 0
BITMAP
18
3C
66
C3
C3
C3
C3
FF
FF
C3
C3
C3
C3
C3
C3
C3
ENDCHAR
STARTCHAR 066
ENCODING 66
SWIDTH 400 0
DWIDTH 10 0
BBX 8 16 0 0
BITMAP
FE
FF
63
63
63
63
63
7E
7F
63
63
63
63
63
FF
FE
ENDCHAR
STARTCHAR 067
ENCODING 67
SWIDTH 400 0
DWIDTH 10 0
BBX 8 16 0 0
BITMAP
7E
FF
C3
C0
C0
C0
C0
C0
C0
C0
C0
C0
C0
C3
FF
7E
ENDCHAR
STARTCHAR 068
ENCODING 68
SWIDTH 400 0
DWIDTH 10 0
BBX 8 16 0 0
BITMAP
FC
FE
63
63
63
63
63
63
63
63
63
63
63
63
FE
FC
ENDCHAR
STARTCHAR 069
ENCODING 69
SWIDTH 400 0
DWIDTH 10 0
BBX 9 16 0 0
BITMAP
FF80
FF80
6180
6000
6000
6000
6400
7C00
7C00
6400
6000
6000
6000
6180
FF80
FF80
ENDCHAR
STARTCHAR 070
ENCODING 70
SWIDTH 400 0
DWIDTH 10 0
BBX 8 16 0 0
BITMAP
FF
FF
63
60
60
60
64
7C
7C
64
60
60
60
60
F0
F0
ENDCHAR
STARTCHAR 071
ENCODING 71
SWIDTH 400 0
DWIDTH 10 0
BBX 8 16 0 0
BITMAP
7E
FF
C3
C0
C0
C0
C0
C0
CF
CF
C3
C3
C3
C3
FF
7B
ENDCHAR
STARTCHAR 072
ENCODING 72
SWIDTH 400 0
DWIDTH 10 0
BBX 8 16 0 0
BITMAP
C3
C3
C3
C3
C3
C3
C3
FF
FF
C3
C3
C3
C3
C3
C3
C3
ENDCHAR
STARTCHAR 073
ENCODING 73
SWIDTH 400 0
DWIDTH 10 0
BBX 4 16 3 0
BITMAP
F0
F0
60
60
60
60
60
60
60
60
60
60
60
60
F0
F0
ENDCHAR
STARTCHAR 074
ENCODING 74
SWIDTH 400 0
DWIDTH 10 0
BBX 8 16 0 0
BITMAP
0F
0F
06
06
06
06
06
06
06
06
06
C6
C6
C6
FE
7C
ENDCHAR
STARTCHAR 075
ENCODING 75
SWIDTH 400 0
DWIDTH 10 0
BBX 8 16 0 0
BITMAP
E3
E3
63
63
63
67
6E
7C
7C
6E
67
63
63
63
E3
E3
ENDCHAR
STARTCHAR 076
ENCODING 76
SWIDTH 400 0
DWIDTH 10 0
BBX 8 16 0 0
BITMAP
F0
F0
60
60
60
60
60
60
60
60
60
60
60
63
FF
FF
ENDCHAR
STARTCHAR 077
ENCODING 77
SWIDTH 400 0
DWIDTH 10 0
BBX 8 16 0 0
BITMAP
C3
E7
FF
FF
DB
DB
DB
DB
C3
C3
C3
C3
C3
C3
C3
C3
ENDCHAR
STARTCHAR 078
ENCODING 78
SWIDTH 400 0
DWIDTH 10 0
BBX 8 16 0 0
BITMAP
C3
E3
F3
FB
DF
CF
C7
C3
C3
C3
C3
C3
C3
C3
C3
C3
ENDCHAR
STARTCHAR 079
ENCODING 79
SWIDTH 400 0
DWIDTH 10 0
BBX 8 16 0 0
BITMAP
7E
FF
C3
C3
C3
C3
C3
C3
C3
C3
C3
C3
C3
C3
FF
7E
ENDCHAR
STARTCHAR 080
ENCODING 80
SWIDTH 400 0
DWIDTH 10 0
BBX 8 16 0 0
BITMAP
FE
FF
63
63
63
63
63
7F
7E
60
60
60
60
60
F0
F0
ENDCHAR
STARTCHAR 081
ENCODING 81
SWIDTH 400 0
DWIDTH 10 0
BBX 8 20 0 -4
BITMAP
7E
FF
C3
C3
C3
C3
C3
C3
C3
C3
C3
DB
DB
DB
FF
7E
0C
0C
0F
0F
ENDCHAR
STARTCHAR 082
ENCODING 82
SWIDTH 400 0
DWIDTH 10 0
BBX 8 16 0 0
BITMAP
FE
FF
63
63
63
63
63
7E
7C
66
63
63
63
63
E3
E3
ENDCHAR
STARTCHAR 083
ENCODING 83
SWIDTH 400 0
DWIDTH 10 0
BBX 8 16 0 0
BITMAP
7E
FF
C3
C0
C0
C0
C0
FE
7F
03
03
03
03
C3
FF
7E
ENDCHAR
STARTCHAR 084
ENCODING 84
SWIDTH 400 0
DWIDTH 10 0
BBX 8 16 1 0
BITMAP
FF
FF
DB
18
18
18
18
18
18
18
18
18
18
18
3C
3C
ENDCHAR
STARTCHAR 085
ENCODING 85
SWIDTH 400 0
DWIDTH 10 0
BBX 8 16 0 0
BITMAP
C3
C3
C3
C3
C3
C3
C3
C3
C3
C3
C3
C3
C3
C3
FF
7E
ENDCHAR
STARTCHAR 086
ENCODING 86
SWIDTH 400 0
DWIDTH 10 0
BBX 8 16 0 0
BITMAP
C3
C3
C3
C3
C3
C3
C3
C3
C3
C3
C3
C3
C3
66
3C
18
ENDCHAR
STARTCHAR 087
ENCODING 87
SWIDTH 400 0
DWIDTH 10 0
BBX 8 16 0 0
BITMAP
C3
C3
C3
C3
C3
C3
C3
C3
C3
DB
DB
DB
DB
FF
E7
66
ENDCHAR
STARTCHAR 088
ENCODING 88
SWIDTH 400 0
DWIDTH 10 0
BBX 8 16 0 0
BITMAP
C3
C3
C3
66
66
3C
3C
18
18
3C
3C
66
66
C3
C3
C3
ENDCHAR
STARTCHAR 089
ENCODING 89
SWIDTH 400 0
DWIDTH 10 0
BBX 8 16 0 0
BITMAP
C3
C3
C3
C3
C3
E7
7E
3C
18
18
18
18
18
18
3C
3C
ENDCHAR
STARTCHAR 090
ENCODING 90
SWIDTH 400 0
DWIDTH 10 0
BBX 8 16 0 0
BITMAP
FF
FF
C3
03
03
07
0E
1C
38
70
E0
C0
C0
C3
FF
FF
ENDCHAR
STARTCHAR 091
ENCODING 91
SWIDTH 400 0
DWIDTH 10 0
BBX 5 16 2 0
BITMAP
F8
F8
C0
C0
C0
C0
C0
C0
C0
C0
C0
C0
C0
C0
F8
F8
ENDCHAR
STARTCHAR 092
ENCODING 92
SWIDTH 400 0
DWIDTH 10 0
BBX 8 9 0 2
BITMAP
80
C0
60
30
18
0C
06
03
01
ENDCHAR
STARTCHAR 093
ENCODING 93
SWIDTH 400 0
DWIDTH 10 0
BBX 5 16 2 0
BITMAP
F8
F8
18
18
18
18
18
18
18
18
18
18
18
18
F8
F8
ENDCHAR
STARTCHAR 094
ENCODING 94
SWIDTH 400 0
DWIDTH 10 0
BBX 8 4 0 12
BITMAP
18
3C
66
C3
ENDCHAR
STARTCHAR 095
ENCODING 95
SWIDTH 400 0
DWIDTH 10 0
BBX 10 2 0 -3
BITMAP
FFC0
FFC0
ENDCHAR
STARTCHAR 096
ENCODING 96
SWIDTH 400 0
DWIDTH 10 0
BBX 3 6 3 12
BITMAP
C0
C0
C0
C0
C0
60
ENDCHAR
STARTCHAR 097
ENCODING 97
SWIDTH 400 0
DWIDTH 10 0
BBX 8 11 0 0
BITMAP
7C
7E
06
06
7E
FE
C6
C6
C6
FF
77
ENDCHAR
STARTCHAR 098
ENCODING 98
SWIDTH 400 0
DWIDTH 10 0
BBX 8 16 0 0
BITMAP
E0
E0
60
60
60
7C
7E
63
63
63
63
63
63
63
7F
7E
ENDCHAR
STARTCHAR 099
ENCODING 99
SWIDTH 400 0
DWIDTH 10 0
BBX 8 11 0 0
BITMAP
7E
FF
C3
C0
C0
C0
C0
C0
C3
FF
7E
ENDCHAR
STARTCHAR 100
ENCODING 100
SWIDTH 400 0
DWIDTH 10 0
BBX 8 16 0 0
BITMAP
0E
0E
06
06
06
3E
7E
C6
C6
C6
C6
C6
C6
C6
FF
7B
ENDCHAR
STARTCHAR 101
ENCODING 101
SWIDTH 400 0
DWIDTH 10 0
BBX 8 11 0 0
BITMAP
7E
FF
C3
C3
FF
FF
C0
C0
C3
FF
7E
ENDCHAR
STARTCHAR 102
ENCODING 102
SWIDTH 400 0
DWIDTH 10 0
BBX 7 16 1 0
BITMAP
1C
3E
32
30
30
FC
FC
30
30
30
30
30
30
30
78
78
ENDCHAR
STARTCHAR 103
ENCODING 103
SWIDTH 400 0
DWIDTH 10 0
BBX 8 16 0 -5
BITMAP
7B
FF
C6
C6
C6
C6
C6
C6
C6
FE
7E
06
06
C6
FE
7C
ENDCHAR
STARTCHAR 104
ENCODING 104
SWIDTH 400 0
DWIDTH 10 0
BBX 8 16 0 0
BITMAP
E0
E0
60
60
60
6E
7F
73
63
63
63
63
63
63
E3
E3
ENDCHAR
STARTCHAR 105
ENCODING 105
SWIDTH 400 0
DWIDTH 10 0
BBX 4 15 2 0
BITMAP
60
60
00
00
E0
E0
60
60
60
60
60
60
60
F0
F0
ENDCHAR
STARTCHAR 106
ENCODING 106
SWIDTH 400 0
DWIDTH 10 0
BBX 6 20 1 -5
BITMAP
0C
0C
00
00
1C
1C
0C
0C
0C
0C
0C
0C
0C
0C
0C
CC
CC
CC
FC
78
ENDCHAR
STARTCHAR 107
ENCODING 107
SWIDTH 400 0
DWIDTH 10 0
BBX 8 16 0 0
BITMAP
E0
E0
60
60
63
63
66
7C
7C
66
63
63
63
63
E3
E3
ENDCHAR
STARTCHAR 108
ENCODING 108
SWIDTH 400 0
DWIDTH 10 0
BBX 4 16 2 0
BITMAP
E0
E0
60
60
60
60
60
60
60
60
60
60
60
60
F0
F0
ENDCHAR
STARTCHAR 109
ENCODING 109
SWIDTH 400 0
DWIDTH 10 0
BBX 8 11 0 0
BITMAP
66
FF
DB
DB
DB
DB
DB
DB
C3
C3
C3
ENDCHAR
STARTCHAR 110
ENCODING 110
SWIDTH 400 0
DWIDTH 10 0
BBX 8 11 0 0
BITMAP
CE
FF
73
63
63
63
63
63
63
63
63
ENDCHAR
STARTCHAR 111
ENCODING 111
SWIDTH 400 0
DWIDTH 10 0
BBX 8 11 0 0
BITMAP
7E
FF
C3
C3
C3
C3
C3
C3
C3
FF
7E
ENDCHAR
STARTCHAR 112
ENCODING 112
SWIDTH 400 0
DWIDTH 10 0
BBX 8 16 0 -5
BITMAP
DE
FF
63
63
63
63
63
63
63
7F
7E
60
60
60
F0
F0
ENDCHAR
STARTCHAR 113
ENCODING 113
SWIDTH 400 0
DWIDTH 10 0
BBX 8 16 0 -5
BITMAP
77
FF
C6
C6
C6
C6
C6
C6
C6
FE
7E
06
06
06
0F
0F
ENDCHAR
STARTCHAR 114
ENCODING 114
SWIDTH 400 0
DWIDTH 10 0
BBX 8 11 0 0
BITMAP
EE
FF
63
61
60
60
60
60
60
F0
F0
ENDCHAR
STARTCHAR 115
ENCODING 115
SWIDTH 400 0
DWIDTH 10 0
BBX 8 11 0 0
BITMAP
7E
FF
C3
C0
7C
3E
03
03
C3
FF
7E
ENDCHAR
STARTCHAR 116
ENCODING 116
SWIDTH 400 0
DWIDTH 10 0
BBX 7 16 1 0
BITMAP
10
30
30
30
30
FC
FC
30
30
30
30
30
30
36
3E
1C
ENDCHAR
STARTCHAR 117
ENCODING 117
SWIDTH 400 0
DWIDTH 10 0
BBX 8 11 0 0
BITMAP
C6
C6
C6
C6
C6
C6
C6
C6
C6
FF
7B
ENDCHAR
STARTCHAR 118
ENCODING 118
SWIDTH 400 0
DWIDTH 10 0
BBX 8 11 0 0
BITMAP
C3
C3
C3
C3
C3
C3
C3
C3
66
3C
18
ENDCHAR
STARTCHAR 119
ENCODING 119
SWIDTH 400 0
DWIDTH 10 0
BBX 8 11 0 0
BITMAP
C3
C3
C3
C3
C3
DB
DB
DB
DB
FF
66
ENDCHAR
STARTCHAR 120
ENCODING 120
SWIDTH 400 0
DWIDTH 10 0
BBX 8 11 0 0
BITMAP
C3
C3
C3
66
3C
18
3C
66
C3
C3
C3
ENDCHAR
STARTCHAR 121
ENCODING 121
SWIDTH 400 0
DWIDTH 10 0
BBX 8 16 0 -5
BITMAP
C3
C3
C3
C3
C3
C3
C3
C3
C3
FF
7F
03
03
03
FE
FC
ENDCHAR
STARTCHAR 122
ENCODING 122
SWIDTH 400 0
DWIDTH 10 0
BBX 8 11 0 0
BITMAP
FF
FF
C3
06
0C
18
30
60
C3
FF
FF
ENDCHAR
STARTCHAR 123
ENCODING 123
SWIDTH 400 0
DWIDTH 10 0
BBX 7 16 1 0
BITMAP
0E
1E
30
30
30
30
30
E0
E0
30
30
30
30
30
1E
0E
ENDCHAR
STARTCHAR 124
ENCODING 124
SWIDTH 400 0
DWIDTH 10 0
BBX 2 16 4 0
BITMAP
C0
C0
C0
C0
C0
C0
C0
00
00
C0
C0
C0
C0
C0
C0
C0
ENDCHAR
STARTCHAR 125
ENCODING 125
SWIDTH 400 0
DWIDTH 10 0
BBX 7 16 2 0
BITMAP
E0
F0
18
18
18
18
18
0E
0E
18
18
18
18
18
F0
E0
ENDCHAR
STARTCHAR 126
ENCODING 126
SWIDTH 400 0
DWIDTH 10 0
BBX 9 4 0 12
BITMAP
3180
7B00
CE00
8400
ENDCHAR
STARTCHAR 127
ENCODING 127
SWIDTH 400 0
DWIDTH 10 0
BBX 8 11 0 0
BITMAP
18
3C
66
C3
C3
C3
C3
C3
C3
FF
FF
ENDCHAR
STARTCHAR 128
ENCODING 128
SWIDTH 400 0
DWIDTH 10 0
BBX 8 18 0 -3
BITMAP
7E
FF
C3
C0
C0
C0
C0
C0
C0
C0
C0
C3
FF
7E
06
03
3F
3E
ENDCHAR
STARTCHAR 129
ENCODING 129
SWIDTH 400 0
DWIDTH 10 0
BBX 8 15 0 0
BITMAP
C6
C6
00
00
C6
C6
C6
C6
C6
C6
C6
C6
C6
FF
7B
ENDCHAR
STARTCHAR 130
ENCODING 130
SWIDTH 400 0
DWIDTH 10 0
BBX 8 16 0 0
BITMAP
0C
18
30
00
00
7E
FF
C3
C3
FF
FF
C0
C0
C3
FF
7E
ENDCHAR
STARTCHAR 131
ENCODING 131
SWIDTH 400 0
DWIDTH 10 0
BBX 8 16 0 0
BITMAP
18
3C
66
00
00
7C
7E
06
06
7E
FE
C6
C6
C6
FF
7B
ENDCHAR
STARTCHAR 132
ENCODING 132
SWIDTH 400 0
DWIDTH 10 0
BBX 8 15 0 0
BITMAP
66
66
00
00
7C
7E
06
06
7E
FE
C6
C6
C6
FF
7B
ENDCHAR
STARTCHAR 133
ENCODING 133
SWIDTH 400 0
DWIDTH 10 0
BBX 8 16 0 0
BITMAP
60
30
18
00
00
7C
7E
06
06
7E
FE
C6
C6
C6
FF
7B
ENDCHAR
STARTCHAR 134
ENCODING 134
SWIDTH 400 0
DWIDTH 10 0
BBX 8 16 0 0
BITMAP
3C
66
66
3C
00
7C
7E
06
06
7E
FE
C6
C6
C6
FF
7B
ENDCHAR
STARTCHAR 135
ENCODING 135
SWIDTH 400 0
DWIDTH 10 0
BBX 8 16 0 -5
BITMAP
7E
FF
C3
C0
C0
C0
C0
C0
C3
FF
7C
0E
06
06
7E
7C
ENDCHAR
STARTCHAR 136
ENCODING 136
SWIDTH 400 0
DWIDTH 10 0
BBX 8 16 0 0
BITMAP
18
3C
66
00
00
7E
FF
C3
C3
FF
FF
C0
C0
C3
FF
7E
ENDCHAR
STARTCHAR 137
ENCODING 137
SWIDTH 400 0
DWIDTH 10 0
BBX 8 15 0 0
BITMAP
66
66
00
00
7E
FF
C3
C3
FF
FF
C0
C0
C3
FF
7E
ENDCHAR
STARTCHAR 138
ENCODING 138
SWIDTH 400 0
DWIDTH 10 0
BBX 8 16 0 0
BITMAP
30
18
0C
00
00
7E
FF
C3
C3
FF
FF
C0
C0
C3
FF
7E
ENDCHAR
STARTCHAR 139
ENCODING 139
SWIDTH 400 0
DWIDTH 10 0
BBX 6 15 1 0
BITMAP
CC
CC
00
00
70
70
30
30
30
30
30
30
30
78
78
ENDCHAR
STARTCHAR 140
ENCODING 140
SWIDTH 400 0
DWIDTH 10 0
BBX 6 16 1 0
BITMAP
30
78
CC
00
00
70
70
30
30
30
30
30
30
30
78
78
ENDCHAR
STARTCHAR 141
ENCODING 141
SWIDTH 400 0
DWIDTH 10 0
BBX 5 16 2 0
BITMAP
C0
60
30
00
00
70
70
30
30
30
30
30
30
30
78
78
ENDCHAR
STARTCHAR 142
ENCODING 142
SWIDTH 400 0
DWIDTH 10 0
BBX 8 18 0 0
BITMAP
C3
C3
18
3C
66
C3
C3
C3
C3
FF
FF
C3
C3
C3
C3
C3
C3
C3
ENDCHAR
STARTCHAR 143
ENCODING 143
SWIDTH 400 0
DWIDTH 10 0
BBX 8 18 0 0
BITMAP
3C
24
3C
18
3C
66
C3
C3
C3
C3
FF
FF
C3
C3
C3
C3
C3
C3
ENDCHAR
STARTCHAR 144
ENCODING 144
SWIDTH 400 0
DWIDTH 10 0
BBX 8 18 0 0
BITMAP
0C
18
30
00
00
FF
FF
63
60
64
7C
7C
64
60
60
63
FF
FF
ENDCHAR
STARTCHAR 145
ENCODING 145
SWIDTH 400 0
DWIDTH 10 0
BBX 8 11 0 0
BITMAP
C6
FF
33
33
1B
3F
7E
C6
C6
FF
77
ENDCHAR
STARTCHAR 146
ENCODING 146
SWIDTH 400 0
DWIDTH 10 0
BBX 8 16 0 0
BITMAP
3F
7F
C6
C6
C6
FF
FF
C6
C6
C6
C6
C6
C6
C6
C7
C7
ENDCHAR
STARTCHAR 147
ENCODING 147
SWIDTH 400 0
DWIDTH 10 0
BBX 8 16 0 0
BITMAP
18
3C
66
00
00
7E
FF
C3
C3
C3
C3
C3
C3
C3
FF
7E
ENDCHAR
STARTCHAR 148
ENCODING 148
SWIDTH 400 0
DWIDTH 10 0
BBX 8 15 0 0
BITMAP
66
66
00
00
7E
FF
C3
C3
C3
C3
C3
C3
C3
FF
7E
ENDCHAR
STARTCHAR 149
ENCODING 149
SWIDTH 400 0
DWIDTH 10 0
BBX 8 16 0 0
BITMAP
30
18
0C
00
00
7E
FF
C3
C3
C3
C3
C3
C3
C3
FF
7E
ENDCHAR
STARTCHAR 150
ENCODING 150
SWIDTH 400 0
DWIDTH 10 0
BBX 8 16 0 0
BITMAP
10
38
6C
00
00
C6
C6
C6
C6
C6
C6
C6
C6
C6
FF
7B
ENDCHAR
STARTCHAR 151
ENCODING 151
SWIDTH 400 0
DWIDTH 10 0
BBX 8 16 0 0
BITMAP
60
38
0C
00
00
C6
C6
C6
C6
C6
C6
C6
C6
C6
FF
7B
ENDCHAR
STARTCHAR 152
ENCODING 152
SWIDTH 400 0
DWIDTH 10 0
BBX 8 20 0 -5
BITMAP
C3
C3
00
00
C3
C3
C3
C3
C3
C3
C3
C3
C3
FF
7F
03
03
03
FE
FC
ENDCHAR
STARTCHAR 153
ENCODING 153
SWIDTH 400 0
DWIDTH 10 0
BBX 8 18 0 0
BITMAP
66
66
00
00
7E
FF
C3
C3
C3
C3
C3
C3
C3
C3
C3
C3
FF
7E
ENDCHAR
STARTCHAR 154
ENCODING 154
SWIDTH 400 0
DWIDTH 10 0
BBX 8 18 0 0
BITMAP
C3
C3
00
00
C3
C3
C3
C3
C3
C3
C3
C3
C3
C3
C3
C3
FF
7E
ENDCHAR
STARTCHAR 155
ENCODING 155
SWIDTH 400 0
DWIDTH 10 0
BBX 8 20 0 -2
BITMAP
08
08
7E
FF
CB
C8
C8
C8
C8
C8
C8
C8
C8
C8
C8
CB
FF
7E
08
08
ENDCHAR
STARTCHAR 156
ENCODING 156
SWIDTH 400 0
DWIDTH 10 0
BBX 8 17 0 0
BITMAP
1C
3E
63
63
63
60
F0
F0
60
60
60
60
60
63
63
FF
FE
ENDCHAR
STARTCHAR 157
ENCODING 157
SWIDTH 400 0
DWIDTH 10 0
BBX 8 16 1 0
BITMAP
C3
C3
C3
C3
C3
E7
7E
18
7E
18
7E
18
18
18
18
18
ENDCHAR
STARTCHAR 158
ENCODING 158
SWIDTH 400 0
DWIDTH 10 0
BBX 8 17 0 0
BITMAP
F8
FC
C6
C6
FC
F8
C2
C2
C6
C6
CF
C6
C6
C6
C6
C6
C3
ENDCHAR
STARTCHAR 159
ENCODING 159
SWIDTH 400 0
DWIDTH 10 0
BBX 8 19 0 -3
BITMAP
0E
1F
33
31
30
30
30
FC
FC
30
30
30
30
30
30
30
B0
F0
60
ENDCHAR
STARTCHAR 160
ENCODING 160
SWIDTH 400 0
DWIDTH 10 0
BBX 8 17 0 0
BITMAP
06
0C
18
30
00
00
7C
7E
06
06
7E
FE
C6
C6
C6
FF
7B
ENDCHAR
STARTCHAR 161
ENCODING 161
SWIDTH 400 0
DWIDTH 10 0
BBX 4 16 2 0
BITMAP
30
60
C0
00
00
E0
E0
60
60
60
60
60
60
60
F0
F0
ENDCHAR
STARTCHAR 162
ENCODING 162
SWIDTH 400 0
DWIDTH 10 0
BBX 8 16 0 0
BITMAP
06
0C
18
00
00
7E
FF
C3
C3
C3
C3
C3
C3
C3
FF
7E
ENDCHAR
STARTCHAR 163
ENCODING 163
SWIDTH 400 0
DWIDTH 10 0
BBX 8 16 0 0
BITMAP
0C
18
30
00
00
C6
C6
C6
C6
C6
C6
C6
C6
C6
FF
7B
ENDCHAR
STARTCHAR 164
ENCODING 164
SWIDTH 400 0
DWIDTH 10 0
BBX 8 16 0 0
BITMAP
11
3B
66
00
00
EE
FF
63
63
63
63
63
63
63
63
63
ENDCHAR
STARTCHAR 165
ENCODING 165
SWIDTH 400 0
DWIDTH 10 0
BBX 8 18 0 0
BITMAP
11
7B
C6
00
C3
E3
F3
DB
CF
C7
C3
C3
C3
C3
C3
C3
C3
C3
ENDCHAR
STARTCHAR 166
ENCODING 166
SWIDTH 400 0
DWIDTH 10 0
BBX 7 11 1 5
BITMAP
7C
FC
CC
CC
CC
FE
7E
00
00
FE
FE
ENDCHAR
STARTCHAR 167
ENCODING 167
SWIDTH 400 0
DWIDTH 10 0
BBX 7 11 1 5
BITMAP
7C
FE
C6
C6
C6
FE
7C
00
00
FE
FE
ENDCHAR
STARTCHAR 168
ENCODING 168
SWIDTH 400 0
DWIDTH 10 0
BBX 8 16 0 0
BITMAP
18
18
00
00
18
18
18
18
18
30
60
C0
C3
C3
FF
7E
ENDCHAR
STARTCHAR 169
ENCODING 169
SWIDTH 400 0
DWIDTH 10 0
BBX 8 9 0 0
BITMAP
FF
FF
C0
C0
C0
C0
C0
C0
C0
ENDCHAR
STARTCHAR 170
ENCODING 170
SWIDTH 400 0
DWIDTH 10 0
BBX 8 9 0 0
BITMAP
FF
FF
03
03
03
03
03
03
03
ENDCHAR
STARTCHAR 171
ENCODING 171
SWIDTH 400 0
DWIDTH 10 0
BBX 9 17 0 0
BITMAP
6000
E000
6000
6000
6180
6300
6600
6C00
1800
3700
6F80
C980
0380
0700
0C00
0F80
0F80
ENDCHAR
STARTCHAR 172
ENCODING 172
SWIDTH 400 0
DWIDTH 10 0
BBX 9 17 0 0
BITMAP
6000
E000
6000
6000
6180
6300
6600
6D00
1B00
3700
6F00
DB00
1F80
1F80
0300
0300
0300
ENDCHAR
STARTCHAR 173
ENCODING 173
SWIDTH 400 0
DWIDTH 10 0
BBX 4 16 3 0
BITMAP
60
60
00
00
60
60
60
60
60
F0
F0
F0
F0
F0
F0
60
ENDCHAR
STARTCHAR 174
ENCODING 174
SWIDTH 400 0
DWIDTH 10 0
BBX 9 8 0 2
BITMAP
1980
3300
6600
CC00
CC00
6600
3300
1980
ENDCHAR
STARTCHAR 175
ENCODING 175
SWIDTH 400 0
DWIDTH 10 0
BBX 9 8 0 2
BITMAP
CC00
6600
3300
1980
1980
3300
6600
CC00
ENDCHAR
STARTCHAR 176
ENCODING 176
SWIDTH 400 0
DWIDTH 10 0
BBX 9 24 0 -6
BITMAP
2200
8880
2200
8880
2200
8880
2200
8880
2200
8880
2200
8880
2200
8880
2200
8880
2200
8880
2200
8880
2200
8880
2200
8880
ENDCHAR
STARTCHAR 177
ENCODING 177
SWIDTH 400 0
DWIDTH 10 0
BBX 10 24 0 -6
BITMAP
5540
AA80
5540
AA80
5540
AA80
5540
AA80
5540
AA80
5540
AA80
5540
AA80
5540
AA80
5540
AA80
5540
AA80
5540
AA80
5540
AA80
ENDCHAR
STARTCHAR 178
ENCODING 178
SWIDTH 400 0
DWIDTH 10 0
BBX 10 24 0 -6
BITMAP
DDC0
7740
DDC0
7740
DDC0
7740
DDC0
7740
DDC0
7740
DDC0
7740
DDC0
7740
DDC0
7740
DDC0
7740
DDC0
7740
DDC0
7740
DDC0
7740
ENDCHAR
STARTCHAR 179
ENCODING 179
SWIDTH 400 0
DWIDTH 10 0
BBX 2 24 4 -6
BITMAP
C0
C0
C0
C0
C0
C0
C0
C0
C0
C0
C0
C0
C0
C0
C0
C0
C0
C0
C0
C0
C0
C0
C0
C0
ENDCHAR
STARTCHAR 180
ENCODING 180
SWIDTH 400 0
DWIDTH 10 0
BBX 6 24 0 -6
BITMAP
0C
0C
0C
0C
0C
0C
0C
0C
0C
0C
0C
FC
FC
0C
0C
0C
0C
0C
0C
0C
0C
0C
0C
0C
ENDCHAR
STARTCHAR 181
ENCODING 181
SWIDTH 400 0
DWIDTH 10 0
BBX 6 24 0 -6
BITMAP
0C
0C
0C
0C
0C
0C
0C
0C
0C
FC
FC
0C
0C
FC
FC
0C
0C
0C
0C
0C
0C
0C
0C
0C
ENDCHAR
STARTCHAR 182
ENCODING 182
SWIDTH 400 0
DWIDTH 10 0
BBX 8 24 0 -6
BITMAP
33
33
33
33
33
33
33
33
33
33
33
F3
F3
33
33
33
33
33
33
33
33
33
33
33
ENDCHAR
STARTCHAR 183
ENCODING 183
SWIDTH 400 0
DWIDTH 10 0
BBX 8 13 0 -6
BITMAP
FF
FF
33
33
33
33
33
33
33
33
33
33
33
ENDCHAR
STARTCHAR 184
ENCODING 184
SWIDTH 400 0
DWIDTH 10 0
BBX 6 15 0 -6
BITMAP
FC
FC
0C
0C
FC
FC
0C
0C
0C
0C
0C
0C
0C
0C
0C
ENDCHAR
STARTCHAR 185
ENCODING 185
SWIDTH 400 0
DWIDTH 10 0
BBX 8 24 0 -6
BITMAP
33
33
33
33
33
33
33
33
33
F3
F3
03
03
F3
F3
33
33
33
33
33
33
33
33
33
ENDCHAR
STARTCHAR 186
ENCODING 186
SWIDTH 400 0
DWIDTH 10 0
BBX 6 24 2 -6
BITMAP
CC
CC
CC
CC
CC
CC
CC
CC
CC
CC
CC
CC
CC
CC
CC
CC
CC
CC
CC
CC
CC
CC
CC
CC
ENDCHAR
STARTCHAR 187
ENCODING 187
SWIDTH 400 0
DWIDTH 10 0
BBX 8 15 0 -6
BITMAP
FF
FF
03
03
F3
F3
33
33
33
33
33
33
33
33
33
ENDCHAR
STARTCHAR 188
ENCODING 188
SWIDTH 400 0
DWIDTH 10 0
BBX 8 15 0 3
BITMAP
33
33
33
33
33
33
33
33
33
F3
F3
03
03
FF
FF
ENDCHAR
STARTCHAR 189
ENCODING 189
SWIDTH 400 0
DWIDTH 10 0
BBX 8 13 0 5
BITMAP
33
33
33
33
33
33
33
33
33
33
33
FF
FF
ENDCHAR
STARTCHAR 190
ENCODING 190
SWIDTH 400 0
DWIDTH 10 0
BBX 6 15 0 3
BITMAP
0C
0C
0C
0C
0C
0C
0C
0C
0C
FC
FC
0C
0C
FC
FC
ENDCHAR
STARTCHAR 191
ENCODING 191
SWIDTH 400 0
DWIDTH 10 0
BBX 6 13 0 -6
BITMAP
FC
FC
0C
0C
0C
0C
0C
0C
0C
0C
0C
0C
0C
ENDCHAR
STARTCHAR 192
ENCODING 192
SWIDTH 400 0
DWIDTH 10 0
BBX 6 13 4 5
BITMAP
C0
C0
C0
C0
C0
C0
C0
C0
C0
C0
C0
FC
FC
ENDCHAR
STARTCHAR 193
ENCODING 193
SWIDTH 400 0
DWIDTH 10 0
BBX 10 13 0 5
BITMAP
0C00
0C00
0C00
0C00
0C00
0C00
0C00
0C00
0C00
0C00
0C00
FFC0
FFC0
ENDCHAR
STARTCHAR 194
ENCODING 194
SWIDTH 400 0
DWIDTH 10 0
BBX 10 13 0 -6
BITMAP
FFC0
FFC0
0C00
0C00
0C00
0C00
0C00
0C00
0C00
0C00
0C00
0C00
0C00
ENDCHAR
STARTCHAR 195
ENCODING 195
SWIDTH 400 0
DWIDTH 10 0
BBX 6 24 4 -6
BITMAP
C0
C0
C0
C0
C0
C0
C0
C0
C0
C0
C0
FC
FC
C0
C0
C0
C0
C0
C0
C0
C0
C0
C0
C0
ENDCHAR
STARTCHAR 196
ENCODING 196
SWIDTH 400 0
DWIDTH 10 0
BBX 10 2 0 5
BITMAP
FFC0
FFC0
ENDCHAR
STARTCHAR 197
ENCODING 197
SWIDTH 400 0
DWIDTH 10 0
BBX 10 24 0 -6
BITMAP
0C00
0C00
0C00
0C00
0C00
0C00
0C00
0C00
0C00
0C00
0C00
FFC0
FFC0
0C00
0C00
0C00
0C00
0C00
0C00
0C00
0C00
0C00
0C00
0C00
ENDCHAR
STARTCHAR 198
ENCODING 198
SWIDTH 400 0
DWIDTH 10 0
BBX 6 24 4 -6
BITMAP
C0
C0
C0
C0
C0
C0
C0
C0
C0
FC
FC
C0
C0
FC
FC
C0
C0
C0
C0
C0
C0
C0
C0
C0
ENDCHAR
STARTCHAR 199
ENCODING 199
SWIDTH 400 0
DWIDTH 10 0
BBX 8 24 2 -6
BITMAP
CC
CC
CC
CC
CC
CC
CC
CC
CC
CC
CC
CF
CF
CC
CC
CC
CC
CC
CC
CC
CC
CC
CC
CC
ENDCHAR
STARTCHAR 200
ENCODING 200
SWIDTH 400 0
DWIDTH 10 0
BBX 8 15 2 3
BITMAP
CC
CC
CC
CC
CC
CC
CC
CC
CC
CF
CF
C0
C0
FF
FF
ENDCHAR
STARTCHAR 201
ENCODING 201
SWIDTH 400 0
DWIDTH 10 0
BBX 8 15 2 -6
BITMAP
FF
FF
C0
C0
CF
CF
CC
CC
CC
CC
CC
CC
CC
CC
CC
ENDCHAR
STARTCHAR 202
ENCODING 202
SWIDTH 400 0
DWIDTH 10 0
BBX 10 15 0 3
BITMAP
3300
3300
3300
3300
3300
3300
3300
3300
3300
F3C0
F3C0
0000
0000
FFC0
FFC0
ENDCHAR
STARTCHAR 203
ENCODING 203
SWIDTH 400 0
DWIDTH 10 0
BBX 10 15 0 -6
BITMAP
FFC0
FFC0
0000
0000
F3C0
F3C0
3300
3300
3300
3300
3300
3300
3300
3300
3300
ENDCHAR
STARTCHAR 204
ENCODING 204
SWIDTH 400 0
DWIDTH 10 0
BBX 8 24 2 -6
BITMAP
CC
CC
CC
CC
CC
CC
CC
CC
CC
CF
CF
C0
C0
CF
CF
CC
CC
CC
CC
CC
CC
CC
CC
CC
ENDCHAR
STARTCHAR 205
ENCODING 205
SWIDTH 400 0
DWIDTH 10 0
BBX 10 6 0 3
BITMAP
FFC0
FFC0
0000
0000
FFC0
FFC0
ENDCHAR
STARTCHAR 206
ENCODING 206
SWIDTH 400 0
DWIDTH 10 0
BBX 10 24 0 -6
BITMAP
3300
3300
3300
3300
3300
3300
3300
3300
3300
F3C0
F3C0
0000
0000
F3C0
F3C0
3300
3300
3300
3300
3300
3300
3300
3300
3300
ENDCHAR
STARTCHAR 207
ENCODING 207
SWIDTH 400 0
DWIDTH 10 0
BBX 10 15 0 3
BITMAP
0C00
0C00
0C00
0C00
0C00
0C00
0C00
0C00
0C00
FFC0
FFC0
0000
0000
FFC0
FFC0
ENDCHAR
STARTCHAR 208
ENCODING 208
SWIDTH 400 0
DWIDTH 10 0
BBX 10 13 0 5
BITMAP
3300
3300
3300
3300
3300
3300
3300
3300
3300
3300
3300
FFC0
FFC0
ENDCHAR
STARTCHAR 209
ENCODING 209
SWIDTH 400 0
DWIDTH 10 0
BBX 10 15 0 -6
BITMAP
FFC0
FFC0
0000
0000
FFC0
FFC0
0C00
0C00
0C00
0C00
0C00
0C00
0C00
0C00
0C00
ENDCHAR
STARTCHAR 210
ENCODING 210
SWIDTH 400 0
DWIDTH 10 0
BBX 10 13 0 -6
BITMAP
FFC0
FFC0
3300
3300
3300
3300
3300
3300
3300
3300
3300
3300
3300
ENDCHAR
STARTCHAR 211
ENCODING 211
SWIDTH 400 0
DWIDTH 10 0
BBX 8 13 2 5
BITMAP
CC
CC
CC
CC
CC
CC
CC
CC
CC
CC
CC
FF
FF
ENDCHAR
STARTCHAR 212
ENCODING 212
SWIDTH 400 0
DWIDTH 10 0
BBX 6 15 4 3
BITMAP
C0
C0
C0
C0
C0
C0
C0
C0
C0
FC
FC
C0
C0
FC
FC
ENDCHAR
STARTCHAR 213
ENCODING 213
SWIDTH 400 0
DWIDTH 10 0
BBX 6 15 4 -6
BITMAP
FC
FC
C0
C0
FC
FC
C0
C0
C0
C0
C0
C0
C0
C0
C0
ENDCHAR
STARTCHAR 214
ENCODING 214
SWIDTH 400 0
DWIDTH 10 0
BBX 8 13 2 -6
BITMAP
FF
FF
CC
CC
CC
CC
CC
CC
CC
CC
CC
CC
CC
ENDCHAR
STARTCHAR 215
ENCODING 215
SWIDTH 400 0
DWIDTH 10 0
BBX 10 24 0 -6
BITMAP
3300
3300
3300
3300
3300
3300
3300
3300
3300
3300
3300
FFC0
FFC0
3300
3300
3300
3300
3300
3300
3300
3300
3300
3300
3300
ENDCHAR
STARTCHAR 216
ENCODING 216
SWIDTH 400 0
DWIDTH 10 0
BBX 10 24 0 -6
BITMAP
0C00
0C00
0C00
0C00
0C00
0C00
0C00
0C00
0C00
FFC0
FFC0
0C00
0C00
FFC0
FFC0
0C00
0C00
0C00
0C00
0C00
0C00
0C00
0C00
0C00
ENDCHAR
STARTCHAR 217
ENCODING 217
SWIDTH 400 0
DWIDTH 10 0
BBX 6 13 0 5
BITMAP
0C
0C
0C
0C
0C
0C
0C
0C
0C
0C
0C
FC
FC
ENDCHAR
STARTCHAR 218
ENCODING 218
SWIDTH 400 0
DWIDTH 10 0
BBX 6 13 4 -6
BITMAP
FC
FC
C0
C0
C0
C0
C0
C0
C0
C0
C0
C0
C0
ENDCHAR
STARTCHAR 219
ENCODING 219
SWIDTH 400 0
DWIDTH 10 0
BBX 10 24 0 -6
BITMAP
FFC0
FFC0
FFC0
FFC0
FFC0
FFC0
FFC0
FFC0
FFC0
FFC0
FFC0
FFC0
FFC0
FFC0
FFC0
FFC0
FFC0
FFC0
FFC0
FFC0
FFC0
FFC0
FFC0
FFC0
ENDCHAR
STARTCHAR 220
ENCODING 220
SWIDTH 400 0
DWIDTH 10 0
BBX 10 12 0 -6
BITMAP
FFC0
FFC0
FFC0
FFC0
FFC0
FFC0
FFC0
FFC0
FFC0
FFC0
FFC0
FFC0
ENDCHAR
STARTCHAR 221
ENCODING 221
SWIDTH 400 0
DWIDTH 10 0
BBX 5 24 0 -6
BITMAP
F8
F8
F8
F8
F8
F8
F8
F8
F8
F8
F8
F8
F8
F8
F8
F8
F8
F8
F8
F8
F8
F8
F8
F8
ENDCHAR
STARTCHAR 222
ENCODING 222
SWIDTH 400 0
DWIDTH 10 0
BBX 5 24 5 -6
BITMAP
F8
F8
F8
F8
F8
F8
F8
F8
F8
F8
F8
F8
F8
F8
F8
F8
F8
F8
F8
F8
F8
F8
F8
F8
ENDCHAR
STARTCHAR 223
ENCODING 223
SWIDTH 400 0
DWIDTH 10 0
BBX 10 12 0 6
BITMAP
FFC0
FFC0
FFC0
FFC0
FFC0
FFC0
FFC0
FFC0
FFC0
FFC0
FFC0
FFC0
ENDCHAR
STARTCHAR 224
ENCODING 224
SWIDTH 400 0
DWIDTH 10 0
BBX 8 11 0 0
BITMAP
7B
FF
CE
CC
CC
CC
CC
CC
CE
FF
7B
ENDCHAR
STARTCHAR 225
ENCODING 225
SWIDTH 400 0
DWIDTH 10 0
BBX 8 16 0 0
BITMAP
7C
FE
C6
C6
C6
C6
DE
DC
C6
C3
C3
C3
C3
C3
CF
CE
ENDCHAR
STARTCHAR 226
ENCODING 226
SWIDTH 400 0
DWIDTH 10 0
BBX 8 16 0 0
BITMAP
FF
FF
C3
C3
C3
C0
C0
C0
C0
C0
C0
C0
C0
C0
C0
C0
ENDCHAR
STARTCHAR 227
ENCODING 227
SWIDTH 400 0
DWIDTH 10 0
BBX 8 13 0 0
BITMAP
FF
FF
66
66
66
66
66
66
66
66
66
66
66
ENDCHAR
STARTCHAR 228
ENCODING 228
SWIDTH 400 0
DWIDTH 10 0
BBX 8 14 0 0
BITMAP
FF
FF
C3
E0
70
38
1C
1C
38
70
E0
C3
FF
FF
ENDCHAR
STARTCHAR 229
ENCODING 229
SWIDTH 400 0
DWIDTH 10 0
BBX 8 12 0 0
BITMAP
7F
FF
CC
CC
CC
CC
CC
CC
CC
CC
FC
78
ENDCHAR
STARTCHAR 230
ENCODING 230
SWIDTH 400 0
DWIDTH 10 0
BBX 8 14 0 -2
BITMAP
33
33
33
33
33
33
33
33
33
3E
30
30
F0
E0
ENDCHAR
STARTCHAR 231
ENCODING 231
SWIDTH 400 0
DWIDTH 10 0
BBX 8 13 0 0
BITMAP
7B
DF
8E
0C
0C
0C
0C
0C
0C
0C
0C
0C
0C
ENDCHAR
STARTCHAR 232
ENCODING 232
SWIDTH 400 0
DWIDTH 10 0
BBX 7 14 1 0
BITMAP
FE
FE
38
7C
C6
C6
C6
C6
C6
C6
7C
38
FE
FE
ENDCHAR
STARTCHAR 233
ENCODING 233
SWIDTH 400 0
DWIDTH 10 0
BBX 8 14 0 0
BITMAP
3C
7E
E7
C3
C3
C3
FF
FF
C3
C3
C3
E7
7E
3C
ENDCHAR
STARTCHAR 234
ENCODING 234
SWIDTH 400 0
DWIDTH 10 0
BBX 9 16 0 0
BITMAP
0800
1C00
3600
6300
C180
C180
C180
6300
3600
3600
3600
3600
3600
3600
7700
7700
ENDCHAR
STARTCHAR 235
ENCODING 235
SWIDTH 400 0
DWIDTH 10 0
BBX 7 16 1 0
BITMAP
3E
7E
40
70
38
0C
3C
7E
C6
C6
C6
C6
C6
C6
FE
7C
ENDCHAR
STARTCHAR 236
ENCODING 236
SWIDTH 400 0
DWIDTH 10 0
BBX 8 10 0 2
BITMAP
7E
FF
DB
DB
DB
DB
DB
DB
FF
7E
ENDCHAR
STARTCHAR 237
ENCODING 237
SWIDTH 400 0
DWIDTH 10 0
BBX 8 14 0 0
BITMAP
03
06
7E
FF
DB
DB
DB
DB
DB
DB
FF
7E
60
C0
ENDCHAR
STARTCHAR 238
ENCODING 238
SWIDTH 400 0
DWIDTH 10 0
BBX 7 16 1 0
BITMAP
1E
7E
E0
C0
C0
C0
C0
FE
FE
C0
C0
C0
C0
E0
7E
1E
ENDCHAR
STARTCHAR 239
ENCODING 239
SWIDTH 400 0
DWIDTH 10 0
BBX 8 14 0 0
BITMAP
7E
FF
C3
C3
C3
C3
C3
C3
C3
C3
C3
C3
C3
C3
ENDCHAR
STARTCHAR 240
ENCODING 240
SWIDTH 400 0
DWIDTH 10 0
BBX 8 10 0 3
BITMAP
FF
FF
00
00
FF
FF
00
00
FF
FF
ENDCHAR
STARTCHAR 241
ENCODING 241
SWIDTH 400 0
DWIDTH 10 0
BBX 8 12 0 0
BITMAP
18
18
18
FF
FF
18
18
18
00
00
FF
FF
ENDCHAR
STARTCHAR 242
ENCODING 242
SWIDTH 400 0
DWIDTH 10 0
BBX 7 14 1 0
BITMAP
C0
60
30
18
0C
06
0C
18
30
60
C0
00
FE
FE
ENDCHAR
STARTCHAR 243
ENCODING 243
SWIDTH 400 0
DWIDTH 10 0
BBX 7 14 1 0
BITMAP
06
0C
18
30
60
C0
60
30
18
0C
06
00
FE
FE
ENDCHAR
STARTCHAR 244
ENCODING 244
SWIDTH 400 0
DWIDTH 10 0
BBX 6 22 4 -6
BITMAP
78
FC
CC
CC
CC
C0
C0
C0
C0
C0
C0
C0
C0
C0
C0
C0
C0
C0
C0
C0
C0
C0
ENDCHAR
STARTCHAR 245
ENCODING 245
SWIDTH 400 0
DWIDTH 10 0
BBX 6 22 0 -4
BITMAP
0C
0C
0C
0C
0C
0C
0C
0C
0C
0C
0C
0C
0C
0C
0C
0C
0C
CC
CC
CC
FC
78
ENDCHAR
STARTCHAR 246
ENCODING 246
SWIDTH 400 0
DWIDTH 10 0
BBX 8 10 0 3
BITMAP
18
18
00
00
FF
FF
00
00
18
18
ENDCHAR
STARTCHAR 247
ENCODING 247
SWIDTH 400 0
DWIDTH 10 0
BBX 8 7 0 4
BITMAP
73
DE
84
00
73
DE
84
ENDCHAR
STARTCHAR 248
ENCODING 248
SWIDTH 400 0
DWIDTH 10 0
BBX 6 7 2 9
BITMAP
78
FC
CC
CC
CC
FC
78
ENDCHAR
STARTCHAR 249
ENCODING 249
SWIDTH 400 0
DWIDTH 10 0
BBX 3 4 4 4
BITMAP
E0
E0
E0
E0
ENDCHAR
STARTCHAR 250
ENCODING 250
SWIDTH 400 0
DWIDTH 10 0
BBX 3 3 4 4
BITMAP
E0
E0
E0
ENDCHAR
STARTCHAR 251
ENCODING 251
SWIDTH 400 0
DWIDTH 10 0
BBX 10 17 0 0
BITMAP
03C0
03C0
0300
0300
0300
0300
0300
0300
0300
F300
F300
3300
3300
3300
3300
3F00
1E00
ENDCHAR
STARTCHAR 252
ENCODING 252
SWIDTH 400 0
DWIDTH 10 0
BBX 8 9 0 8
BITMAP
EE
FF
63
63
63
63
63
63
63
ENDCHAR
STARTCHAR 253
ENCODING 253
SWIDTH 400 0
DWIDTH 10 0
BBX 7 10 0 7
BITMAP
7C
FE
C6
0C
18
30
60
C6
FE
FE
ENDCHAR
STARTCHAR 254
ENCODING 254
SWIDTH 400 0
DWIDTH 10 0
BBX 7 11 1 1
BITMAP
FE
FE
FE
FE
FE
FE
FE
FE
FE
FE
FE
ENDCHAR
STARTCHAR 255
ENCODING 255
SWIDTH 400 0
DWIDTH 10 0
BBX 0 0 0 0
BITMAP
ENDCHAR
ENDFONT
